HIERARCHY
ROOT root
{
	OFFSET 0.000000 0.000000 0.000000
	CHANNELS 6 Xposition Yposition Zposition Zrotation Yrotation Xrotation
	JOINT lhip
	{
		OFFSET 0.058581 -0.082280 -0.017664
		CHANNELS 3 Zrotation Yrotation Xrotation
		JOINT lknee
		{
			OFFSET 0.043451 -0.386469 0.008037
			CHANNELS 3 Zrotation Yrotation Xrotation
			JOINT lankle
			{
				OFFSET -0.014790 -0.426874 -0.037428
				CHANNELS 3 Zrotation Yrotation Xrotation
				JOINT ltoe
				{
					OFFSET 0.041054 -0.060286 0.122042
					CHANNELS 3 Zrotation Yrotation Xrotation
					End Site
					{
						OFFSET 0.000000 0.000000 0.000000
					}
				}
			}
		}
	}
	JOINT rhip
	{
		OFFSET -0.060310 -0.090513 -0.013543
		CHANNELS 3 Zrotation Yrotation Xrotation
		JOINT rknee
		{
			OFFSET -0.043257 -0.383688 -0.004843
			CHANNELS 3 Zrotation Yrotation Xrotation
			JOINT rankle
			{
				OFFSET 0.019056 -0.420046 -0.034562
				CHANNELS 3 Zrotation Yrotation Xrotation
				JOINT rtoe
				{
					OFFSET -0.034840 -0.062106 0.130323
					CHANNELS 3 Zrotation Yrotation Xrotation
					End Site
					{
						OFFSET 0.000000 0.000000 0.000000
					}
				}
			}
		}
	}
	JOINT lowerback
	{
		OFFSET 0.004439 0.124404 -0.038385
		CHANNELS 3 Zrotation Yrotation Xrotation
		JOINT upperback
		{
			OFFSET 0.004488 0.137956 0.026820
			CHANNELS 3 Zrotation Yrotation Xrotation
			JOINT chest
			{
				OFFSET -0.002265 0.056032 0.002855
				CHANNELS 3 Zrotation Yrotation Xrotation
				JOINT lowerneck
				{
					OFFSET -0.013390 0.211636 -0.033468
					CHANNELS 3 Zrotation Yrotation Xrotation
					JOINT upperneck
					{
						OFFSET 0.010113 0.088937 0.050410
						CHANNELS 3 Zrotation Yrotation Xrotation
						End Site
						{
							OFFSET 0.000000 0.000000 0.000000
						}
					}
				}
				JOINT lclavicle
				{
					OFFSET 0.071702 0.114000 -0.018898
					CHANNELS 3 Zrotation Yrotation Xrotation
					JOINT lshoulder
					{
						OFFSET 0.122921 0.045205 -0.019046
						CHANNELS 3 Zrotation Yrotation Xrotation
						JOINT lelbow
						{
							OFFSET 0.255332 -0.015649 -0.022946
							CHANNELS 3 Zrotation Yrotation Xrotation
							JOINT lwrist
							{
								OFFSET 0.265709 0.012698 -0.007375
								CHANNELS 3 Zrotation Yrotation Xrotation
								End Site
								{
									OFFSET 0.000000 0.000000 0.000000
								}
							}
						}
					}
				}
				JOINT rclavicle
				{
					OFFSET -0.082954 0.112472 -0.023707
					CHANNELS 3 Zrotation Yrotation Xrotation
					JOINT rshoulder
					{
						OFFSET -0.113228 0.046853 -0.008472
						CHANNELS 3 Zrotation Yrotation Xrotation
						JOINT relbow
						{
							OFFSET -0.260127 -0.014369 -0.031269
							CHANNELS 3 Zrotation Yrotation Xrotation
							JOINT rwrist
							{
								OFFSET -0.269108 0.006794 -0.006027
								CHANNELS 3 Zrotation Yrotation Xrotation
								End Site
								{
									OFFSET 0.000000 0.000000 0.000000
								}
							}
						}
					}
				}
			}
		}
	}
}
MOTION
Frames: 13
Frame Time: 0.033333
2.339515 0.679911 0.971517 -86.464176 -0.596073 83.799638 -0.142512 -3.300367 -3.417440 -3.818033 -8.718089 19.000178 2.207115 11.904455 -18.850416 0.000000 -0.000000 0.000000 2.308436 -1.134813 -2.456847 -2.780649 -3.043893 18.302534 -0.986873 -13.784992 -18.724869 0.000000 -0.000000 0.000000 -1.534100 3.973698 10.200016 -0.400686 -1.177602 4.716943 -1.375905 0.693459 -0.456007 2.866200 1.402969 -7.645059 4.849151 -3.132254 0.974703 -25.734493 -5.097711 -1.551351 -52.493592 -7.143528 12.323120 6.737514 -26.337303 1.183437 -5.002138 -4.798397 2.470050 26.014950 8.630326 0.346376 55.924506 2.856492 15.000258 -10.988007 29.328035 0.455879 2.271102 5.684643 1.550493 
2.338718 0.680304 0.969933 -87.224680 -0.599396 84.056015 -0.036743 -3.174775 -4.142829 -4.052075 -8.290544 20.104751 2.378756 12.447446 -19.407176 0.000000 -0.000000 0.000000 2.349021 -0.611793 -3.422495 -2.597521 -2.692831 19.669754 -1.029549 -14.022298 -19.460416 0.000000 -0.000000 0.000000 -1.710384 4.138524 10.707466 -0.234597 -1.159123 4.416098 -1.286576 0.709736 -0.236746 3.017083 0.588650 -8.229295 4.877863 -4.147061 0.038275 -24.942054 -4.825250 -1.938651 -52.831529 -6.864569 12.240871 6.305357 -26.883430 -0.077605 -5.445980 -2.952141 1.576348 25.675880 8.806727 -0.009417 55.662177 2.756952 15.096272 -11.266690 30.103598 0.181603 3.048469 5.220746 1.147454 
2.336875 0.680718 0.968453 -87.608471 -0.403405 84.398944 0.330702 -3.108958 -4.936097 -4.336618 -7.887343 21.341809 2.451640 12.540880 -20.196687 0.000000 -0.000000 0.000000 2.415914 -0.696616 -4.267133 -2.277091 -2.505752 20.846163 -0.932096 -13.941918 -20.169327 0.000000 -0.000000 0.000000 -1.617434 4.081473 10.709971 -0.082918 -1.296589 4.720126 -1.231421 0.643414 -0.244237 3.160700 0.405450 -8.642116 4.881783 -4.727069 -1.004528 -24.578596 -4.694099 -1.782421 -52.808329 -6.455564 12.138551 6.243185 -26.843006 0.370259 -5.167648 -3.514449 1.563976 25.323600 9.092948 -0.141963 55.589412 2.758751 14.877036 -11.423930 29.902036 0.152404 2.539691 5.127825 0.778490 
2.334413 0.680989 0.965681 -88.129439 -0.278353 85.108606 0.487944 -3.130950 -6.502534 -4.593004 -7.671963 23.432202 2.789507 13.264015 -21.595015 0.000000 -0.000000 0.000000 2.494708 -0.633636 -6.015476 -2.058102 -2.122707 23.041899 -1.053694 -14.136347 -21.220775 0.000000 -0.000000 0.000000 -1.495061 3.896268 10.876875 0.027938 -1.574192 4.929976 -1.267349 0.629812 -0.488139 3.192034 0.303827 -9.902630 4.895895 -4.840209 -2.187309 -24.478595 -4.518587 -1.745511 -52.434090 -5.392080 12.409987 5.881687 -26.811550 1.077763 -4.960444 -4.037456 1.880493 25.419132 9.381545 -0.208731 54.937016 2.742935 14.560211 -11.168032 29.981183 -0.045403 1.978142 5.290726 0.607169 
2.332704 0.680761 0.963394 -88.299200 -0.203927 85.427054 0.713614 -3.048063 -7.475312 -5.070819 -7.465743 24.965228 2.850861 13.286159 -22.462032 0.000000 -0.000000 0.000000 2.439846 -0.632830 -6.987898 -1.717420 -2.110004 24.499089 -1.233365 -14.079495 -22.100689 0.000000 -0.000000 0.000000 -1.487429 3.785644 11.276539 0.128544 -1.766962 4.888903 -1.231793 0.639656 -0.601347 3.326010 0.455833 -10.764208 4.854128 -4.918503 -2.892823 -23.980941 -4.456717 -1.935503 -52.799345 -4.695661 12.665944 5.240968 -27.306624 1.506517 -5.255920 -3.363767 1.620471 25.343706 9.364173 -0.439483 54.691179 2.708046 14.603659 -10.637062 30.374542 0.407654 3.219196 5.047922 0.442344 
2.331126 0.680804 0.957551 -88.705483 0.058858 86.197657 1.204872 -2.854159 -9.641294 -4.868551 -6.217448 28.007763 2.258947 12.160015 -26.078339 0.000000 -0.000000 0.000000 2.964080 0.408777 -9.144812 -2.644806 -3.283175 27.514785 1.101838 -12.871264 -26.668513 0.000000 -0.000000 0.000000 -1.238735 3.006373 12.885084 -0.183928 -0.566886 -0.091258 -0.860455 0.722793 3.648061 4.789258 3.510786 -13.953305 2.271649 -8.163810 -3.193293 -23.040692 -2.527946 -1.085472 -53.279099 -7.578712 11.250841 0.925851 -26.887211 13.324850 -0.508974 -1.581644 -6.001598 23.746117 6.015526 -0.813810 56.626162 4.996345 16.382838 -10.488823 31.527895 5.685367 0.523307 1.144330 -4.509989 
2.328537 0.681151 0.952612 -89.074550 0.053624 86.981614 1.399586 -3.221731 -11.562954 -5.072180 -5.421726 30.558431 2.475298 12.358969 -27.284437 0.000000 -0.000000 0.000000 2.977956 0.672210 -11.001703 -2.610519 -3.213145 29.750879 0.907203 -13.039494 -27.789250 0.000000 -0.000000 0.000000 -1.329363 2.992946 13.646963 -0.120340 -0.589521 -0.837665 -0.846689 0.612282 3.879992 4.720048 3.881867 -15.490080 2.264049 -7.972453 -3.961527 -22.631110 -2.572220 -0.761571 -53.729031 -7.325880 11.221185 0.322350 -26.695657 14.116902 -1.826653 -1.728627 -7.247518 23.179228 5.958636 -0.910336 57.612754 4.998722 16.815085 -10.669538 31.896231 6.598149 1.525610 1.317576 -4.808006 
2.325715 0.681399 0.947056 -89.441202 0.192517 87.617308 1.572063 -3.358998 -13.365102 -5.226633 -4.989131 33.266397 2.839143 12.744373 -28.533370 0.000000 -0.000000 0.000000 3.074245 1.098765 -12.657248 -2.586149 -3.342832 32.002996 0.576504 -12.984382 -29.075255 0.000000 -0.000000 0.000000 -1.188218 2.880340 14.918830 -0.177581 -0.479508 -1.663138 -0.785951 0.545858 3.738638 4.691519 4.051027 -16.657593 2.266754 -7.670505 -5.022727 -22.820678 -2.855776 -0.633897 -54.391499 -6.864816 11.133576 0.570017 -25.887902 14.536108 -1.843215 -0.982167 -7.697363 22.709355 6.313059 -0.590542 58.552537 4.881515 16.852943 -10.717049 31.435612 7.006852 1.006504 0.737189 -5.662413 
2.322150 0.681834 0.940226 -89.772114 0.364840 88.338584 1.891590 -3.486344 -15.416877 -5.343064 -4.256783 36.349082 3.326283 12.844409 -29.605524 0.000000 -0.000000 0.000000 3.327549 1.679349 -14.436430 -2.788760 -3.384652 34.530518 0.393586 -13.245528 -30.307105 0.000000 -0.000000 0.000000 -1.102134 2.790282 15.892548 -0.229671 -0.432837 -2.139488 -0.715616 0.572174 3.558550 4.667556 4.288808 -18.025097 2.393630 -7.367936 -6.199338 -22.942323 -3.271622 -0.394895 -55.182178 -6.675693 11.042942 0.752155 -24.918593 14.564731 -2.898667 -0.756421 -8.089567 22.462304 6.717907 -0.597903 59.345612 4.878462 16.940651 -10.641105 30.670582 7.432678 1.904780 0.449178 -6.037543 
2.317084 0.681787 0.930627 -89.979441 0.518959 89.023939 1.936169 -3.866690 -17.778979 -5.219127 -3.582871 40.388065 3.837943 13.730796 -31.741114 0.000000 -0.000000 0.000000 3.419937 2.519975 -16.533992 -2.910103 -3.633607 38.019742 -0.233855 -13.662716 -31.706161 0.000000 -0.000000 0.000000 -0.949041 2.640868 17.479901 -0.366349 -0.367633 -2.905647 -0.600015 0.309221 3.209647 4.660869 4.339437 -19.356610 2.451555 -6.553691 -7.399452 -23.658694 -4.156108 0.012932 -56.016570 -6.294211 10.760076 2.317415 -24.352822 13.507941 -1.042223 -0.463282 -7.224537 22.484144 7.749839 -0.121951 59.947531 5.007928 16.791189 -10.940821 29.302133 7.601873 -0.339927 0.771137 -5.054206 
2.312288 0.682062 0.921340 -90.153325 0.598608 89.335357 2.004191 -4.190226 -19.435635 -5.303310 -3.099069 43.829478 4.166153 14.080698 -33.318780 0.000000 -0.000000 0.000000 3.477748 3.179721 -18.188477 -3.285302 -4.002655 41.431749 -0.322260 -14.102640 -33.256483 0.000000 -0.000000 0.000000 -1.025471 2.417999 18.752169 -0.451518 -0.285220 -3.076288 -0.543799 0.438439 2.966089 4.653787 4.487812 -20.333104 2.751528 -6.292928 -8.573013 -23.942938 -5.278514 0.232441 -56.639501 -6.341124 10.550635 3.261294 -24.148162 12.545152 -0.915210 -0.073194 -7.500614 22.314445 8.865981 0.443622 60.590446 5.047801 16.882959 -11.441754 29.474725 7.263592 0.236744 -0.086090 -6.329293 
2.307125 0.682025 0.910364 -90.181607 0.537997 89.789288 2.205158 -4.477834 -21.413801 -5.587916 -2.202761 47.557922 4.514268 14.300233 -34.951052 0.000000 -0.000000 0.000000 3.258335 3.485902 -20.040539 -3.688649 -4.394027 45.051399 -0.404521 -14.396410 -35.106261 0.000000 -0.000000 0.000000 -1.362822 2.651118 19.748820 -0.357133 -0.250064 -3.366747 -0.238694 0.234018 2.814736 4.643962 4.397834 -21.198242 2.837151 -6.336073 -9.425567 -24.111863 -6.295060 0.329974 -57.089226 -7.069148 10.699891 3.727636 -23.765712 12.243614 -0.762075 -0.395278 -7.235580 22.366721 9.478287 0.346955 60.582402 5.393303 16.632529 -11.680576 28.741377 7.871916 0.569564 1.047373 -4.533728 
2.301634 0.682447 0.898304 -89.959409 0.707438 90.232239 2.705334 -4.461569 -23.530894 -5.970111 -1.769980 51.550318 4.584080 14.325853 -36.278799 0.000000 -0.000000 0.000000 3.231031 3.585212 -21.892705 -3.855258 -4.717358 48.750177 -0.603559 -14.458907 -36.207787 0.000000 -0.000000 0.000000 -1.338275 2.617599 20.819388 -0.280366 -0.575318 -3.952851 -0.294411 0.200564 2.707767 4.577891 4.962668 -21.935599 2.998020 -6.483818 -9.612322 -23.842084 -7.232841 0.188042 -56.896531 -7.445642 11.056549 3.114629 -24.348482 13.311185 -1.317536 -0.181447 -6.812837 22.585878 10.157187 0.395710 60.338711 5.866787 16.518207 -11.561747 28.841977 8.461581 1.585476 0.738512 -4.353309 
